<svg xmlns="http://www.w3.org/2000/svg" version="1.1" viewBox="-5.0 -10.0 110.0 135.0">
 <path d="m80.141 6h-60.281c-2.6797 0-4.8594 2.1914-4.8594 4.8906v78.219c0 2.6992 2.1797 4.8906 4.8594 4.8906h60.281c2.6797 0 4.8594-2.1914 4.8594-4.8906v-78.219c0-2.6992-2.1797-4.8906-4.8594-4.8906zm2.9219 83.109c0 1.6211-1.3086 2.9297-2.9219 2.9297h-10.691v-16.82c0-0.25 0.089843-0.48828 0.26172-0.67188l13.352-14.262zm0-31.68-14.762 15.77c-0.51172 0.55078-0.78906 1.2617-0.78906 2.0117v16.82h-47.652c-1.6094 0-2.9219-1.3203-2.9219-2.9297l0.003906-78.211c0-1.6211 1.3086-2.9297 2.9219-2.9297h60.281c1.6094 0 2.9219 1.3203 2.9219 2.9297l-0.007812 46.539z"/>
 <path d="m38.328 41.199h-0.67188c-3.7305 0-6.8398-2.7891-7.0898-6.3594-0.14062-1.9805 0.57812-3.9219 1.9688-5.3281 1.2891-1.2891 3-2 4.8203-2h0.96875c1.0703 0 1.9414-0.87891 1.9414-1.9609v-2.9297c0-1.0781-0.87109-1.9609-1.9414-1.9609h-0.96875c-3.6289 0-7.0508 1.4219-9.6211 4.0117s-3.9883 6.0195-3.9883 9.6719c0 3.6289 1.4883 7.0703 4.1992 9.6914 2.6406 2.5508 6.2109 4.0117 9.7891 4.0117h0.58984c1.0703 0 1.9414-0.87891 1.9414-1.9609v-2.9297c0-1.0781-0.87109-1.9609-1.9414-1.9609zm0 4.8906h-0.58984c-3.0898 0-6.1719-1.2617-8.4492-3.4609-2.3203-2.2383-3.6016-5.1797-3.6016-8.2812 0-3.1289 1.2188-6.0703 3.4219-8.2891 2.2109-2.2188 5.1289-3.4414 8.25-3.4414h0.96875v2.9297h-0.96875c-2.3281 0-4.5312 0.91016-6.1914 2.5781-1.7891 1.8086-2.7109 4.3086-2.5391 6.8516 0.32031 4.5781 4.2812 8.1797 9.0312 8.1797h0.67188v2.9297z"/>
 <path d="m62.262 20.672h-0.58984c-1.0703 0-1.9414 0.87891-1.9414 1.9609v2.9297c0 1.0781 0.87109 1.9609 1.9414 1.9609h0.67188c3.7305 0 6.8398 2.7891 7.0898 6.3594 0.14062 1.9805-0.57812 3.9219-1.9688 5.3281-1.2891 1.2891-3 2-4.8203 2h-0.96875c-1.0703 0-1.9414 0.87891-1.9414 1.9609v2.9297c0 1.0781 0.87109 1.9609 1.9414 1.9609h0.96875c3.6289 0 7.0508-1.4219 9.6211-4.0117 2.5703-2.5898 3.9883-6.0195 3.9883-9.6719 0-3.6289-1.4883-7.0703-4.1992-9.6914-2.6406-2.5508-6.2109-4.0117-9.7891-4.0117zm8.6289 21.98c-2.2109 2.2188-5.1289 3.4414-8.25 3.4414h-0.96875v-2.9297h0.96875c2.3281 0 4.5312-0.91016 6.1914-2.5781 1.7891-1.8086 2.7109-4.3086 2.5391-6.8516-0.32031-4.5781-4.2812-8.1797-9.0312-8.1797h-0.67188v-2.9297h0.58984c3.0898 0 6.1719 1.2617 8.4492 3.4609 2.3203 2.2383 3.6016 5.1797 3.6016 8.2812 0 3.1289-1.2188 6.0703-3.4219 8.2891z"/>
 <path d="m61.672 35.82v-2.9297c0-1.0781-0.87109-1.9609-1.9414-1.9609h-19.441c-1.0703 0-1.9414 0.87891-1.9414 1.9609v2.9297c0 1.0781 0.87109 1.9609 1.9414 1.9609h19.441c1.0703 0 1.9414-0.87891 1.9414-1.9609zm-21.391-2.9297h19.441v2.9297h-19.441z"/>
</svg>