<svg xmlns="http://www.w3.org/2000/svg" version="1.1" viewBox="-5.0 -10.0 110.0 135.0">
 <path d="m15.879 21.641h51.43c0.53906 0 0.98047-0.44141 0.98047-0.98047 0-0.53906-0.44141-0.98047-0.98047-0.98047h-51.43c-0.53906 0-0.98047 0.44141-0.98047 0.98047 0 0.53906 0.44141 0.98047 0.98047 0.98047z"/>
 <path d="m15.879 31.422h51.43c0.53906 0 0.98047-0.44141 0.98047-0.98047 0-0.53906-0.44141-0.98047-0.98047-0.98047h-51.43c-0.53906 0-0.98047 0.44141-0.98047 0.98047 0 0.53906 0.44141 0.98047 0.98047 0.98047z"/>
 <path d="m15.879 41.199h48.5c0.53906 0 0.98047-0.44141 0.98047-0.98047s-0.44141-0.98047-0.98047-0.98047h-48.5c-0.53906 0-0.98047 0.44141-0.98047 0.98047s0.44141 0.98047 0.98047 0.98047z"/>
 <path d="m15.879 50.98h38.59c0.55078 0 0.98047-0.44141 0.98047-0.98047s-0.42969-0.98047-0.98047-0.98047h-38.59c-0.53906 0-0.98047 0.44141-0.98047 0.98047s0.44141 0.98047 0.98047 0.98047z"/>
 <path d="m15.879 60.762h28.711c0.53906 0 0.98047-0.44141 0.98047-0.98047s-0.44141-0.98047-0.98047-0.98047h-28.711c-0.53906 0-0.98047 0.44141-0.98047 0.98047s0.44141 0.98047 0.98047 0.98047z"/>
 <path d="m15.879 70.531h20.789c0.53906 0 0.98047-0.44141 0.98047-0.98047 0-0.53906-0.44141-0.98047-0.98047-0.98047h-20.789c-0.53906 0-0.98047 0.44141-0.98047 0.98047 0 0.53906 0.44141 0.98047 0.98047 0.98047z"/>
 <path d="m94 26.82c0-0.85937-0.33984-1.6719-0.96094-2.2812-1.2617-1.25-3.3086-1.25-4.5781 0l-2.2188 2.1992c-1.0898-0.42188-2.3711-0.19922-3.25 0.66016l-5.8203 5.75v-16.047c0-6.1211-4.9805-11.102-11.102-11.102h-48.969c-6.1211 0-11.102 4.9805-11.102 11.102v65.797c0 6.1211 4.9805 11.102 11.102 11.102h48.988c6.1211 0 11.102-4.9805 11.102-11.102v-35.59l11.719-11.59c0.30078 0.44141 0.46875 0.94922 0.46875 1.4805 0 0.66016-0.25 1.2617-0.71094 1.7109l-9.1211 9.0391c-0.37891 0.37891-0.37891 1 0 1.3906 0.19141 0.19141 0.44141 0.28125 0.69141 0.28125s0.48828-0.089844 0.67969-0.28125l9.1211-9.0312c0.82813-0.82031 1.2891-1.9297 1.2891-3.1094 0-1.0508-0.37891-2.0391-1.0508-2.8594 0.48047-0.55078 0.75-1.2383 0.75-1.9805 0-0.37109-0.070313-0.73047-0.21094-1.0781l2.2109-2.1914c0.62109-0.60938 0.96094-1.4219 0.96094-2.2812zm-18.77 56.09c0 5.0391-4.1016 9.1406-9.1406 9.1406h-48.988c-5.0391 0-9.1406-4.1094-9.1406-9.1406v-65.809c0-5.0391 4.1094-9.1406 9.1406-9.1406h48.988c5.0508 0 9.1406 4.1094 9.1406 9.1406v17.988l-33.801 33.422c-0.57813 0.57031-0.89063 1.3281-0.89063 2.1406 0 0.23047 0.03125 0.46875 0.089844 0.69141l-3.6484 5.7617c-0.23828 0.37891-0.32812 0.82031-0.30078 1.25l-20.801-0.003907c-0.53906 0-0.98047 0.44141-0.98047 0.98047 0 0.53906 0.44141 0.98047 0.98047 0.98047h22.699 0.058594 0.14844c0.37109 0 0.75-0.10156 1.0898-0.30078l5.8516-3.6211c0.23047 0.058594 0.46875 0.089844 0.69922 0.089844 0.78125 0 1.5508-0.28906 2.1484-0.87109l26.648-26.359v33.66zm-33.43-9.7617 2.0898 2.0703-5.0508 3.1211s-0.12109 0.03125-0.17969-0.03125c-0.058594-0.058594-0.058594-0.12109-0.039062-0.16016l3.1719-5.0117zm46.969-40.039-41.578 41.109c-0.42969 0.42188-1.1094 0.42188-1.5391 0l-1.3281-1.3203-1.5195-1.5c-0.21094-0.19922-0.30859-0.46094-0.30859-0.73828 0-0.28125 0.10938-0.55078 0.30859-0.75l41.574-41.121c0.42188-0.41016 1.1094-0.42187 1.5391 0l2.8516 2.8203c0.21094 0.19922 0.30859 0.46094 0.30859 0.73828 0 0.28125-0.10938 0.55078-0.30859 0.73828zm2.8984-5.3984-2.0312 2.0117-1.8203-1.7891 2.0195-2c0.5-0.5 1.3203-0.5 1.8281 0 0.23047 0.23828 0.37109 0.55859 0.37109 0.89062 0 0.32812-0.14062 0.66016-0.37109 0.89062z"/>
 <path d="m82.68 32.75-30.898 30.551c-0.39062 0.37891-0.39062 1 0 1.3906 0.19141 0.19141 0.44141 0.28125 0.69141 0.28125s0.5-0.089844 0.67969-0.28125l30.898-30.551c0.39062-0.37891 0.39062-1 0-1.3789-0.37891-0.39062-1-0.39062-1.3789 0z"/>
</svg>