<svg enable-background="new 0 0 64 64" viewBox="0 0 64 80" xmlns="http://www.w3.org/2000/svg"><path d="m3 50.6054688h10.3945313v10.3945312c0 .5522461.4472656 1 1 1h46.6054687c.5527344 0 1-.4477539 1-1v-46.5908203c0-.5522461-.4472656-1-1-1h-10.4091797v-10.4091797c0-.5522461-.4472656-1-1-1h-46.5908203c-.5527344 0-1 .4477539-1 1v46.6054688c0 .552246.4472656 1 1 1zm57-35.1962891v44.5908203h-44.6054687v-9.3945313h34.1962891c.5527344 0 1-.4477539 1-1v-34.196289zm-56-11.4091797h44.5908203v10.4091797 34.1962891h-34.196289-10.3945313z"/><path d="m25.2978516 27.3037109v10.4013672c0 .5522461.4472656 1 1 1s1-.4477539 1-1v-10.4013672h10.4013672c.5527344 0 1-.4477539 1-1s-.4472656-1-1-1h-10.4013672v-10.4018554c0-.5522461-.4472656-1-1-1s-1 .4477539-1 1v10.4018555h-10.4013672c-.5527344 0-1 .4477539-1 1s.4472656 1 1 1h10.4013672z"/></svg>