<svg viewBox="-5 -10 110 135" xmlns="http://www.w3.org/2000/svg"><path d="m85.535 20.719h-9.957c-.15234-3.4531-1.5273-5.9805-3.3203-5.9805s-3.168 2.5312-3.3203 5.9805h-9.5469c-.15234-3.4531-1.5273-5.9805-3.3203-5.9805s-3.168 2.5312-3.3203 5.9805h-9.5469c-.15234-3.4531-1.5273-5.9805-3.3203-5.9805s-3.168 2.5312-3.3203 5.9805h-9.957c-2.3125 0-4.1953 1.875-4.2148 4.1836 0 .003906-.003906.007812-.003906.015625-.92188 26.234-8.1602 45.109-11.859 51.426-.36328.62109-.36719 1.3594-.007813 1.9844.35547.62109 1 .99219 1.7148.99219h10.148v1.7266c0 2.3281 1.8945 4.2188 4.2188 4.2188h58.938c2.3281 0 4.2188-1.8945 4.2188-4.2188l-.003906-56.109c0-2.3281-1.8945-4.2188-4.2188-4.2188zm-13.281-4.7031c.80078 0 1.8867 1.7812 2.0312 4.7031h-4.0625c.14453-2.9219 1.2305-4.7031 2.0312-4.7031zm-16.188 0c.80078 0 1.8867 1.7812 2.0312 4.7031h-4.0625c.14453-2.9219 1.2305-4.7031 2.0312-4.7031zm-16.191 0c.80078 0 1.8867 1.7812 2.0312 4.7031h-4.0625c.14453-2.9219 1.2305-4.7031 2.0312-4.7031zm-13.277 5.9805h9.957c.15234 3.4531 1.5273 5.9805 3.3203 5.9805.35156 0 .63672-.28516.63672-.64062 0-.35156-.28516-.63672-.63672-.63672-.80078 0-1.8867-1.7812-2.0312-4.7031h14.898c.15234 3.4531 1.5273 5.9805 3.3203 5.9805.35156 0 .64062-.28516.64062-.64062 0-.35156-.28516-.63672-.64062-.63672-.80078 0-1.8867-1.7812-2.0312-4.7031h14.898c.15234 3.4531 1.5273 5.9805 3.3203 5.9805.35156 0 .64062-.28516.64062-.64062 0-.35156-.28516-.63672-.64062-.63672-.80078 0-1.8867-1.7812-2.0312-4.7031h15.309c1.6211 0 2.9414 1.3203 2.9414 2.9414v2.6133l-.09375.83594c-.22656 2.043-.45703 4.0156-.69141 5.9336l-64.656.003907c.30078-3.1172.51953-6.2461.62891-9.3633v-.011719c0-.003907.003906-.007813.003906-.011719 0-1.6211 1.3203-2.9414 2.9414-2.9414zm-14.977 55.691c-.13281-.23047-.13281-.47266.003906-.70312 2.6055-4.4492 5.3047-11.617 7.3984-19.668 1.7969-6.8906 3.0977-14.266 3.875-21.738.039062.007813.074218.023437.11719.023437h64.52c-2.9648 23.633-6.7109 37.832-11.152 42.234-.14062.14062-.29297.20312-.49219.20312h-63.664c-.26562 0-.47656-.12109-.60937-.35156zm73.914 6.2969h-58.938c-1.6211 0-2.9414-1.3203-2.9414-2.9414v-1.7266h52.234c.53125 0 1.0156-.19922 1.3906-.57031 3.2891-3.2578 6.2109-11.473 8.6875-24.41 1.0625-5.5586 1.8867-11.141 2.5078-15.898v42.609c0 1.6211-1.3203 2.9414-2.9414 2.9414zm-18.312-37.023h5.7461c.28516 0 .53516-.1875.61328-.46094l1.6641-5.7461c.054687-.19141.019531-.40234-.10156-.5625-.12109-.16016-.30859-.25391-.51172-.25391h-5.7461c-.28516 0-.53516.1875-.61328.46094l-1.6641 5.7461c-.054687.19141-.019531.40234.10156.5625.12109.16016.30859.25391.51172.25391zm2.1445-5.7461h4.4141l-1.293 4.4688h-4.4141zm-13.637 5.7461h5.7461c.28516 0 .53516-.1875.61328-.46094l1.6641-5.7461c.054688-.19141.019532-.40234-.10156-.5625s-.30859-.25391-.51172-.25391h-5.7461c-.28516 0-.53516.1875-.61328.46094l-1.6641 5.7461c-.054688.19141-.019532.40234.10156.5625.12109.16016.30859.25391.51172.25391zm2.1445-5.7461h4.4141l-1.293 4.4688h-4.4141zm-13.637 5.7461h5.7461c.28516 0 .53516-.1875.61328-.46094l1.6641-5.7461c.054687-.19141.019531-.40234-.10156-.5625s-.30859-.25391-.51172-.25391h-5.7461c-.28516 0-.53516.1875-.61328.46094l-1.6641 5.7461c-.054688.19141-.019531.40234.10156.5625.12109.16016.30859.25391.51172.25391zm2.1445-5.7461h4.4141l-1.293 4.4688h-4.4141zm-13.633 5.7461h5.7461c.28516 0 .53516-.1875.61328-.46094l1.6641-5.7461c.054687-.19141.019531-.40234-.10156-.5625s-.30859-.25391-.51172-.25391h-5.7461c-.28516 0-.53516.1875-.61328.46094l-1.6641 5.7461c-.054688.19141-.019531.40234.10156.5625.12109.16016.30859.25391.51172.25391zm2.1445-5.7461h4.4141l-1.293 4.4688h-4.4141zm28.488 16.98c.12109.16016.30859.25391.51172.25391h5.7461c.28516 0 .53516-.1875.61328-.46094l1.6641-5.7461c.054687-.19141.019531-.40234-.10156-.5625-.12109-.16016-.30859-.25391-.51172-.25391h-5.7461c-.28516 0-.53516.1875-.61328.46094l-1.6641 5.7461c-.054688.19141-.019531.40234.10156.5625zm2.6562-5.4883h4.4141l-1.293 4.4688h-4.4141zm-14.145 5.4883c.12109.16016.30859.25391.51172.25391h5.7461c.28516 0 .53516-.1875.61328-.46094l1.6641-5.7461c.054687-.19141.019531-.40234-.10156-.5625-.12109-.16016-.30859-.25391-.51172-.25391h-5.7461c-.28516 0-.53516.1875-.61328.46094l-1.6641 5.7461c-.054688.19141-.019531.40234.10156.5625zm2.6523-5.4883h4.4141l-1.293 4.4688h-4.4141zm-14.145 5.4883c.12109.16016.30859.25391.51172.25391h5.7461c.28516 0 .53516-.1875.61328-.46094l1.6641-5.7461c.054688-.19141.019531-.40234-.10156-.5625-.12109-.16016-.30859-.25391-.51172-.25391h-5.7461c-.28516 0-.53516.1875-.61328.46094l-1.6641 5.7461c-.054687.19141-.019531.40234.10156.5625zm2.6523-5.4883h4.4141l-1.293 4.4688h-4.4141zm-13.633 5.7422h5.7461c.28516 0 .53516-.1875.61328-.46094l1.6641-5.7461c.054688-.19141.019532-.40234-.10156-.5625-.12109-.16016-.30859-.25391-.51172-.25391h-5.7461c-.28516 0-.53516.1875-.61328.46094l-1.6641 5.7461c-.054688.19141-.019532.40234.10156.5625.12109.16016.30859.25391.51172.25391zm2.1445-5.7422h4.4141l-1.293 4.4688h-4.4141zm36.41 10.211h-5.7461c-.28516 0-.53516.1875-.61328.46094l-1.6641 5.7461c-.054687.19141-.019531.40234.10156.5625.12109.16016.30859.25391.51172.25391h5.7461c.28516 0 .53516-.1875.61328-.46094l1.6641-5.7461c.054687-.19141.019531-.40234-.10156-.5625-.12109-.16016-.30859-.25391-.51172-.25391zm-2.1445 5.7461h-4.4141l1.293-4.4688h4.4141zm-9.3477-5.7461h-5.7461c-.28516 0-.53516.1875-.61328.46094l-1.6641 5.7461c-.054688.19141-.019532.40234.10156.5625s.30859.25391.51172.25391h5.7461c.28516 0 .53516-.1875.61328-.46094l1.6641-5.7461c.054688-.19141.019532-.40234-.10156-.5625s-.30859-.25391-.51172-.25391zm-2.1445 5.7461h-4.4141l1.293-4.4688h4.4141zm-9.3438-5.7461h-5.7461c-.28516 0-.53516.1875-.61328.46094l-1.6641 5.7461c-.054687.19141-.019531.40234.10156.5625.12109.16016.30859.25391.51172.25391h5.7461c.28516 0 .53516-.1875.61328-.46094l1.6641-5.7461c.054687-.19141.019531-.40234-.10156-.5625-.12109-.16016-.30859-.25391-.51172-.25391zm-2.1445 5.7461h-4.4141l1.293-4.4688h4.4141zm-16.758 1.2773h5.7461c.28516 0 .53516-.1875.61328-.46094l1.6641-5.7461c.054687-.19141.019531-.40234-.10156-.5625s-.30859-.25391-.51172-.25391h-5.7461c-.28516 0-.53516.1875-.61328.46094l-1.6641 5.7461c-.054688.19141-.019531.40234.10156.5625.12109.16016.30859.25391.51172.25391zm2.1445-5.7461h4.4141l-1.293 4.4688h-4.4141z"/></svg>