<svg xmlns="http://www.w3.org/2000/svg" data-name="Layer 1" viewBox="0 0 100 125" x="0px" y="0px"><defs><style>
      .cls-1 {
        stroke-width: 0px;
      }
    </style></defs><path class="cls-1" d="m92.62,12.424l-10.505-10.504c-.216-.216-.509-.337-.814-.337h-48.419c-.305,0-.598.121-.814.337-.216.216-.337.509-.337.814v62.134l-1.062-.441-.586-2.973c-.106-.54-.58-.929-1.13-.929h-5.925c-.55,0-1.024.389-1.13.929l-.586,2.973-2.649,1.099-2.518-1.689c-.457-.306-1.067-.247-1.456.142l-4.19,4.19c-.389.389-.449.999-.142,1.456l1.689,2.518-1.099,2.649-2.973.586c-.54.106-.929.58-.929,1.13v5.925c0,.55.389,1.024.929,1.13l2.973.586,1.099,2.649-1.689,2.518c-.306.457-.247,1.067.142,1.456l4.19,4.19c.389.389.999.448,1.456.142l2.518-1.689,2.649,1.099.586,2.973c.106.54.58.929,1.13.929h5.925c.55,0,1.024-.389,1.13-.929l.586-2.973,2.649-1.099,2.518,1.689c.457.306,1.067.247,1.456-.142l4.19-4.19c.389-.389.449-.999.142-1.456l-1.689-2.518,1.099-2.649,2.973-.586c.54-.106.929-.58.929-1.13v-1.811h11.794l.422.383c.641.582,1.083,1.262,1.325,2.027-.502.403-.826,1.02-.826,1.713v3.551c0,1.211.985,2.196,2.196,2.196h17.806c1.211,0,2.196-.985,2.196-2.196v-3.551c0-.845-.48-1.578-1.181-1.945.331-.703.612-1.441.844-2.177h12.294c.636,0,1.152-.516,1.152-1.152V13.239c0-.305-.121-.598-.337-.814Zm-10.167-6.91l6.572,6.572h-6.572v-6.572Zm-39.821,75.973l-2.649.522c-.378.075-.693.333-.841.689l-1.571,3.788c-.148.356-.108.763.107,1.083l1.505,2.245-2.851,2.851-2.245-1.505c-.32-.215-.727-.255-1.083-.107l-3.788,1.571c-.356.148-.614.463-.689.841l-.522,2.649h-4.032l-.522-2.649c-.075-.378-.333-.693-.689-.841l-3.788-1.571c-.356-.148-.763-.107-1.083.107l-2.245,1.505-2.851-2.851,1.505-2.245c.215-.32.255-.727.107-1.083l-1.571-3.788c-.148-.356-.463-.614-.841-.689l-2.649-.522v-4.032l2.649-.522c.378-.075.693-.333.841-.689l1.571-3.788c.148-.356.108-.762-.107-1.083l-1.505-2.245,2.851-2.851,2.245,1.505c.32.215.727.255,1.083.107l3.788-1.571c.356-.148.614-.463.689-.841l.522-2.649h4.032l.522,2.649c.075.378.333.693.689.841l3.788,1.571c.356.148.762.107,1.083-.107l2.245-1.505,2.851,2.851-1.505,2.245c-.215.32-.255.727-.107,1.083l1.571,3.788c.148.356.463.614.841.689l2.649.522v4.032Zm1.375-6.109l-2.973-.586-1.099-2.649.081-.121c.132.053.275.082.426.082h12.107v1.62c0,1.748.59,3.321,1.713,4.595h-9.326v-1.811c0-.55-.389-1.024-.929-1.13Zm12.389,1.831c-1.024-.929-1.544-2.102-1.544-3.485v-9.401c0-1.011.822-1.833,1.833-1.833s1.833.822,1.833,1.833v5.125c0,.636.516,1.152,1.152,1.152s1.152-.516,1.152-1.152v-19.232c0-.84.683-1.523,1.523-1.523s1.523.683,1.523,1.523v14.43c0,.636.516,1.152,1.152,1.152s1.152-.516,1.152-1.152v-3.226c0-.714.581-1.295,1.295-1.295s1.295.581,1.295,1.295v3.41c0,.636.516,1.152,1.152,1.152s1.152-.516,1.152-1.152v-2.608c0-.659.536-1.196,1.196-1.196s1.196.537,1.196,1.196v3.847c0,.636.516,1.152,1.152,1.152s1.152-.516,1.152-1.152v-1.922c0-.619.503-1.122,1.122-1.122s1.122.503,1.122,1.122v11.976c0,1.595-.629,4.343-1.794,6.425h-15.47c-.345-1.241-1.028-2.332-2.04-3.25l-2.304-2.09Zm5.949-35.476c4.082,0,7.403,3.321,7.403,7.403,0,2.641-1.388,5.023-3.577,6.341v-5.261c0-2.11-1.717-3.827-3.827-3.827s-3.827,1.717-3.827,3.827v5.261c-2.189-1.318-3.577-3.7-3.577-6.341,0-4.082,3.321-7.403,7.403-7.403Zm15.201,46.455h-17.59v-3.336h17.59v3.336Zm2.54-9.869c.147-.816.222-1.57.222-2.195v-4.02h3.94c.636,0,1.152-.516,1.152-1.152s-.516-1.152-1.152-1.152h-3.94v-4.968h3.94c.636,0,1.152-.516,1.152-1.152s-.516-1.152-1.152-1.152h-4.348c-.579-1.074-1.714-1.807-3.017-1.807-.478,0-.933.099-1.347.277-.498-1.327-1.776-2.276-3.275-2.276-.701,0-1.354.209-1.902.566-.656-.888-1.707-1.467-2.893-1.467-.457,0-.892.089-1.295.245v-.007c.347-.148.682-.315,1.005-.499h17.071c.636,0,1.152-.516,1.152-1.152s-.516-1.152-1.152-1.152h-14.363c1.137-1.402,1.88-3.116,2.099-4.968h12.264c.636,0,1.152-.516,1.152-1.152s-.516-1.152-1.152-1.152h-12.266c-.222-1.87-.976-3.578-2.109-4.968h14.375c.636,0,1.152-.516,1.152-1.152s-.516-1.152-1.152-1.152h-17.088c-1.42-.815-3.063-1.283-4.814-1.283s-3.394.469-4.814,1.283h-17.089c-.636,0-1.152.516-1.152,1.152s.516,1.152,1.152,1.152h14.375c-1.132,1.39-1.886,3.099-2.109,4.968h-12.266c-.636,0-1.152.516-1.152,1.152s.516,1.152,1.152,1.152h12.264c.219,1.853.962,3.567,2.099,4.968h-14.363c-.636,0-1.152.516-1.152,1.152s.516,1.152,1.152,1.152h17.072c.322.184.658.351,1.005.499v2.561c-.553-.275-1.174-.434-1.833-.434-1.637,0-3.051.958-3.721,2.342h-12.522c-.636,0-1.152.516-1.152,1.152s.516,1.152,1.152,1.152h12.107v4.968h-11.043l.118-.176c.306-.457.247-1.067-.142-1.456l-4.19-4.19c-.389-.389-.999-.449-1.456-.142l-1.801,1.208V3.886h46.115v9.353c0,.636.516,1.152,1.152,1.152h9.353v63.93h-10.569Zm5.314-43.726c0,.636-.516,1.152-1.152,1.152h-43.805c-.636,0-1.152-.516-1.152-1.152s.516-1.152,1.152-1.152h43.805c.636,0,1.152.516,1.152,1.152Zm0-7.272c0,.636-.516,1.152-1.152,1.152h-43.805c-.636,0-1.152-.516-1.152-1.152s.516-1.152,1.152-1.152h43.805c.636,0,1.152.516,1.152,1.152Zm-44.957-6.12h17.258c.636,0,1.152-.516,1.152-1.152v-7.272c0-.636-.516-1.152-1.152-1.152h-17.258c-.636,0-1.152.516-1.152,1.152v7.272c0,.636.516,1.152,1.152,1.152Zm1.152-7.272h14.954v4.968h-14.954v-4.968Zm-15.604,55.264c-5.667,0-10.277,4.61-10.277,10.277s4.61,10.277,10.277,10.277,10.277-4.61,10.277-10.277-4.61-10.277-10.277-10.277Zm0,18.251c-4.397,0-7.974-3.577-7.974-7.974s3.577-7.974,7.974-7.974,7.974,3.577,7.974,7.974-3.577,7.974-7.974,7.974Z"/></svg>