<svg xmlns="http://www.w3.org/2000/svg" version="1.1" viewBox="-5.0 -10.0 110.0 135.0">
 <path d="m52.727 32.148h-5.4492c-1.082 0-2.1133 0.46094-2.8281 1.2695-0.71484 0.80469-1.0547 1.8828-0.92969 2.957l2.0234 17.32c0.17578 1.5078 1.4531 2.6484 2.9688 2.6484h2.9766c1.5156 0 2.7969-1.1328 2.9688-2.6445l2.0234-17.32c0.125-1.0742-0.21094-2.1484-0.92969-2.957-0.71484-0.8125-1.7461-1.2734-2.8242-1.2734zm-0.90625 21.238c-0.023437 0.16797-0.16406 0.29688-0.33203 0.29688h-2.9766c-0.17188 0-0.3125-0.12891-0.33203-0.30078l-2.0234-17.32c-0.039062-0.32422 0.0625-0.63672 0.27734-0.88281 0.21484-0.24219 0.51953-0.37891 0.84766-0.37891h5.4492c0.32422 0 0.62891 0.13281 0.84766 0.37891 0.21875 0.24219 0.31641 0.55859 0.27734 0.88281z"/>
 <path d="m51.449 59.133h-2.8984c-1.6055 0-2.9141 1.3047-2.9141 2.9141v2.8984c0 1.6055 1.3047 2.9141 2.9141 2.9141h2.8984c1.6055 0 2.9141-1.3047 2.9141-2.9141v-2.8984c0-1.6094-1.3086-2.9141-2.9141-2.9141zm0.25781 5.8086c0 0.13672-0.11719 0.25781-0.25781 0.25781h-2.8984c-0.13672 0-0.25781-0.11719-0.25781-0.25781v-2.8984c0-0.14453 0.11719-0.25781 0.25781-0.25781h2.8984c0.14062 0 0.25781 0.11719 0.25781 0.25781z"/>
 <path d="m93.641 48.035-3.3398-1.0703c-4.6328-1.4922-8.3633-4.9219-10.223-9.418-1.8672-4.4922-1.6562-9.5586 0.57031-13.883l1.6055-3.125c0.41406-0.80469 0.26172-1.7656-0.37109-2.4062-0.64062-0.64062-1.6016-0.79297-2.4062-0.37891l-3.1328 1.6055c-4.3242 2.2266-9.3906 2.4336-13.883 0.57031-4.4922-1.8633-7.9297-5.5859-9.418-10.223l-1.0703-3.3438c-0.28125-0.85938-1.0742-1.4336-1.9727-1.4336s-1.6914 0.57422-1.9648 1.4297l-1.0703 3.3398c-1.4922 4.6328-4.9219 8.3633-9.418 10.223s-9.5586 1.6562-13.883-0.57031l-3.125-1.6055c-0.8125-0.41016-1.7734-0.25391-2.4062 0.37891-0.63672 0.63672-0.78906 1.6055-0.37891 2.4062l1.6055 3.1328c2.2266 4.3281 2.4297 9.3906 0.57031 13.883-1.8633 4.4922-5.5859 7.9297-10.223 9.418l-3.3438 1.0703c-0.85938 0.27344-1.4336 1.0664-1.4336 1.9648s0.57422 1.6914 1.4297 1.9648l3.3398 1.0703c4.6328 1.4922 8.3633 4.9219 10.223 9.418 1.8672 4.4922 1.6562 9.5586-0.57031 13.883l-1.6055 3.125c-0.41406 0.80469-0.26172 1.7656 0.37109 2.4062 0.64062 0.64062 1.6016 0.79297 2.4062 0.37891l3.1328-1.6055c4.3281-2.2266 9.3906-2.4297 13.883-0.57031 4.4922 1.8633 7.9297 5.5859 9.418 10.223l1.0703 3.3438c0.27344 0.85156 1.0664 1.4297 1.9648 1.4297 0.89844 0 1.6914-0.57422 1.9648-1.4297l1.0703-3.3398c1.4922-4.6328 4.9219-8.3633 9.418-10.223 4.4922-1.8672 9.5547-1.6602 13.883 0.57031l3.125 1.6055c0.80469 0.41406 1.7695 0.26172 2.4062-0.37109 0.63672-0.63672 0.78906-1.6055 0.37891-2.4062l-1.6055-3.1328c-2.2266-4.3281-2.4297-9.3906-0.57031-13.883 1.8633-4.4922 5.5859-7.9297 10.223-9.418l3.3398-1.0703h0.003906c0.85156-0.27344 1.4297-1.0664 1.4297-1.9648 0.007812-0.90234-0.5625-1.6953-1.418-1.9688zm-4.1523 2.4727c-5.3828 1.7266-9.7031 5.7109-11.867 10.93-2.1641 5.2188-1.9219 11.094 0.66016 16.117l0.76172 1.4922-1.4922-0.76562c-5.0234-2.582-10.898-2.8203-16.117-0.66016s-9.1992 6.4844-10.93 11.867l-0.50391 1.5859-0.50781-1.5859c-1.7266-5.3828-5.7109-9.7031-10.93-11.867-2.3633-0.97656-4.8594-1.4648-7.3516-1.4648-3.0117 0-6.0195 0.71094-8.7695 2.125l-1.4922 0.76172 0.76562-1.4922c2.582-5.0234 2.8203-10.898 0.66016-16.117s-6.4844-9.1992-11.867-10.93l-1.582-0.50391 1.5859-0.50781c5.3828-1.7266 9.7031-5.7109 11.867-10.93 2.1641-5.2188 1.9219-11.094-0.66016-16.117l-0.76172-1.4922 1.4883 0.76562c5.0195 2.582 10.895 2.8203 16.117 0.66016 5.2188-2.1602 9.1992-6.4844 10.93-11.867l0.50781-1.5859 0.50781 1.5859c1.7266 5.3828 5.7109 9.7031 10.93 11.867 5.2227 2.1641 11.094 1.9219 16.117-0.66016l1.4922-0.76172-0.76562 1.4883c-2.582 5.0234-2.8203 10.898-0.66016 16.117s6.4844 9.1992 11.867 10.93l1.5859 0.50781z"/>
 <path d="m72.586 40.652c-1.3242-3.1914-1.957-6.5547-1.8828-9.9961 0.007813-0.36719-0.13281-0.71484-0.39453-0.97656-0.25781-0.25781-0.61719-0.39063-0.97656-0.38281l-0.53516 0.007813c-6.8242 0-13.16-2.6992-17.84-7.6055-0.24609-0.26562-0.59375-0.41016-0.95703-0.41016s-0.71094 0.14844-0.96094 0.41016c-4.6172 4.8359-11.121 7.6094-17.844 7.6094l-0.55078-0.011719c-0.37109 0.027344-0.71094 0.13672-0.96484 0.39062-0.25391 0.25781-0.39453 0.60547-0.38672 0.96875 0.078125 3.4414-0.55469 6.8047-1.8789 9.9922-1.3203 3.1914-3.2539 6.0156-5.7422 8.3906-0.25781 0.25-0.40234 0.59766-0.40234 0.96094s0.14844 0.71094 0.41016 0.96094c2.4844 2.375 4.4141 5.1953 5.7383 8.3867s1.957 6.5547 1.8828 9.9961c-0.015625 0.36719 0.12891 0.71875 0.38672 0.97656 0.25781 0.25781 0.60547 0.37109 0.97656 0.38281l0.53516-0.007813c6.8242 0 13.16 2.6992 17.84 7.6055 0.25 0.26172 0.59766 0.41406 0.96094 0.41406 0.36719 0 0.71094-0.14844 0.96094-0.41016 4.6172-4.8359 11.121-7.6094 17.844-7.6094l0.55469 0.007813c0.34375 0.035156 0.71094-0.13672 0.96484-0.39062 0.25391-0.25781 0.39453-0.60547 0.38281-0.96875-0.078125-3.4414 0.55469-6.8047 1.8789-9.9922 1.3203-3.1914 3.2539-6.0156 5.7422-8.3906 0.26172-0.25391 0.41016-0.59766 0.41016-0.96094 0-0.36719-0.14844-0.71094-0.41016-0.96094-2.4883-2.375-4.4219-5.1953-5.7422-8.3867zm-2.457 17.68c-1.293 3.1172-1.9922 6.3828-2.0742 9.7188-6.7266 0.1875-13.199 2.8672-18.055 7.4609-4.8516-4.5938-11.328-7.2734-18.055-7.4609-0.085937-3.3398-0.78906-6.6055-2.0781-9.7227-1.2891-3.1133-3.1055-5.9102-5.3984-8.3281 2.2969-2.4219 4.1094-5.2188 5.4023-8.332 1.293-3.1172 1.9922-6.3828 2.0742-9.7188 6.7266-0.1875 13.199-2.8672 18.055-7.4609 4.8516 4.5938 11.328 7.2734 18.055 7.4609 0.085937 3.3398 0.78906 6.6055 2.0781 9.7227 1.2891 3.1133 3.1016 5.9102 5.3984 8.3281-2.2969 2.4219-4.1133 5.2188-5.4023 8.332z"/>
</svg>